<svg width="16" height="16" viewBox="0 0 16 16" fill="none" xmlns="http://www.w3.org/2000/svg">
<path d="M8.93088 1.41653L10.2291 4.01307C10.4062 4.36715 10.8783 4.72122 11.2717 4.78023L13.6223 5.17365C15.1272 5.42937 15.4812 6.51126 14.3993 7.59315L12.57 9.43236C12.2651 9.73726 12.088 10.3372 12.1864 10.77L12.7077 13.0419C13.1207 14.832 12.1667 15.5303 10.5832 14.5959L8.3801 13.2878C7.97684 13.0518 7.32771 13.0518 6.92446 13.2878L4.7115 14.5861C3.12801 15.5205 2.17397 14.8221 2.58706 13.0321L3.10834 10.7601C3.20669 10.3372 3.02965 9.73726 2.72476 9.42253L0.905211 7.60298C-0.17668 6.52109 0.177394 5.42937 1.68221 5.18348L4.03286 4.79007C4.42628 4.72122 4.89837 4.37698 5.07541 4.02291L6.37368 1.42637C7.07199 0.0100743 8.23256 0.0100742 8.93088 1.41653Z" fill="#F3BE5C"/>
</svg>
