<svg width="67" height="67" viewBox="0 0 67 67" fill="none" xmlns="http://www.w3.org/2000/svg">
<path d="M51.7575 11.6412L36.4033 5.89037C34.8121 5.30412 32.2158 5.30412 30.6246 5.89037L15.2704 11.6412C12.3112 12.7579 9.9104 16.2195 9.9104 19.3741V41.9866C9.9104 44.2479 11.39 47.235 13.2046 48.575L28.5587 60.0487C31.2666 62.0866 35.7054 62.0866 38.4133 60.0487L53.7675 48.575C55.5821 47.207 57.0617 44.2479 57.0617 41.9866V19.3741C57.0896 16.2195 54.6887 12.7579 51.7575 11.6412ZM35.5937 35.9287V43.2708C35.5937 44.4154 34.6446 45.3645 33.5 45.3645C32.3554 45.3645 31.4062 44.4154 31.4062 43.2708V35.9287C28.5867 35.0354 26.5208 32.4112 26.5208 29.3125C26.5208 25.46 29.6475 22.3333 33.5 22.3333C37.3525 22.3333 40.4792 25.46 40.4792 29.3125C40.4792 32.4391 38.4133 35.0354 35.5937 35.9287Z" fill="#1C1C18"/>
<path d="M51.7575 11.6412L36.4033 5.89037C34.8121 5.30412 32.2158 5.30412 30.6246 5.89037L15.2704 11.6412C12.3112 12.7579 9.9104 16.2195 9.9104 19.3741V41.9866C9.9104 44.2479 11.39 47.235 13.2046 48.575L28.5587 60.0487C31.2666 62.0866 35.7054 62.0866 38.4133 60.0487L53.7675 48.575C55.5821 47.207 57.0617 44.2479 57.0617 41.9866V19.3741C57.0896 16.2195 54.6887 12.7579 51.7575 11.6412ZM35.5937 35.9287V43.2708C35.5937 44.4154 34.6446 45.3645 33.5 45.3645C32.3554 45.3645 31.4062 44.4154 31.4062 43.2708V35.9287C28.5867 35.0354 26.5208 32.4112 26.5208 29.3125C26.5208 25.46 29.6475 22.3333 33.5 22.3333C37.3525 22.3333 40.4792 25.46 40.4792 29.3125C40.4792 32.4391 38.4133 35.0354 35.5937 35.9287Z" fill="#CFB47D"/>
<path d="M51.7575 11.6412L36.4033 5.89037C34.8121 5.30412 32.2158 5.30412 30.6246 5.89037L15.2704 11.6412C12.3112 12.7579 9.9104 16.2195 9.9104 19.3741V41.9866C9.9104 44.2479 11.39 47.235 13.2046 48.575L28.5587 60.0487C31.2666 62.0866 35.7054 62.0866 38.4133 60.0487L53.7675 48.575C55.5821 47.207 57.0617 44.2479 57.0617 41.9866V19.3741C57.0896 16.2195 54.6887 12.7579 51.7575 11.6412ZM35.5937 35.9287V43.2708C35.5937 44.4154 34.6446 45.3645 33.5 45.3645C32.3554 45.3645 31.4062 44.4154 31.4062 43.2708V35.9287C28.5867 35.0354 26.5208 32.4112 26.5208 29.3125C26.5208 25.46 29.6475 22.3333 33.5 22.3333C37.3525 22.3333 40.4792 25.46 40.4792 29.3125C40.4792 32.4391 38.4133 35.0354 35.5937 35.9287Z" fill="black"/>
<path d="M51.7575 11.6412L36.4033 5.89037C34.8121 5.30412 32.2158 5.30412 30.6246 5.89037L15.2704 11.6412C12.3112 12.7579 9.9104 16.2195 9.9104 19.3741V41.9866C9.9104 44.2479 11.39 47.235 13.2046 48.575L28.5587 60.0487C31.2666 62.0866 35.7054 62.0866 38.4133 60.0487L53.7675 48.575C55.5821 47.207 57.0617 44.2479 57.0617 41.9866V19.3741C57.0896 16.2195 54.6887 12.7579 51.7575 11.6412ZM35.5937 35.9287V43.2708C35.5937 44.4154 34.6446 45.3645 33.5 45.3645C32.3554 45.3645 31.4062 44.4154 31.4062 43.2708V35.9287C28.5867 35.0354 26.5208 32.4112 26.5208 29.3125C26.5208 25.46 29.6475 22.3333 33.5 22.3333C37.3525 22.3333 40.4792 25.46 40.4792 29.3125C40.4792 32.4391 38.4133 35.0354 35.5937 35.9287Z" fill="#FFF5E2"/>
<path d="M51.7575 11.6412L36.4033 5.89037C34.8121 5.30412 32.2158 5.30412 30.6246 5.89037L15.2704 11.6412C12.3112 12.7579 9.9104 16.2195 9.9104 19.3741V41.9866C9.9104 44.2479 11.39 47.235 13.2046 48.575L28.5587 60.0487C31.2666 62.0866 35.7054 62.0866 38.4133 60.0487L53.7675 48.575C55.5821 47.207 57.0617 44.2479 57.0617 41.9866V19.3741C57.0896 16.2195 54.6887 12.7579 51.7575 11.6412ZM35.5937 35.9287V43.2708C35.5937 44.4154 34.6446 45.3645 33.5 45.3645C32.3554 45.3645 31.4062 44.4154 31.4062 43.2708V35.9287C28.5867 35.0354 26.5208 32.4112 26.5208 29.3125C26.5208 25.46 29.6475 22.3333 33.5 22.3333C37.3525 22.3333 40.4792 25.46 40.4792 29.3125C40.4792 32.4391 38.4133 35.0354 35.5937 35.9287Z" fill="#F3BE5C"/>
<path d="M51.7575 11.6412L36.4033 5.89037C34.8121 5.30412 32.2158 5.30412 30.6246 5.89037L15.2704 11.6412C12.3112 12.7579 9.9104 16.2195 9.9104 19.3741V41.9866C9.9104 44.2479 11.39 47.235 13.2046 48.575L28.5587 60.0487C31.2666 62.0866 35.7054 62.0866 38.4133 60.0487L53.7675 48.575C55.5821 47.207 57.0617 44.2479 57.0617 41.9866V19.3741C57.0896 16.2195 54.6887 12.7579 51.7575 11.6412ZM35.5937 35.9287V43.2708C35.5937 44.4154 34.6446 45.3645 33.5 45.3645C32.3554 45.3645 31.4062 44.4154 31.4062 43.2708V35.9287C28.5867 35.0354 26.5208 32.4112 26.5208 29.3125C26.5208 25.46 29.6475 22.3333 33.5 22.3333C37.3525 22.3333 40.4792 25.46 40.4792 29.3125C40.4792 32.4391 38.4133 35.0354 35.5937 35.9287Z" fill="#A3772F"/>
</svg>
