<svg width="25" height="24" viewBox="0 0 25 24" fill="none" xmlns="http://www.w3.org/2000/svg">
<path d="M2.61401 2H4.35402C5.43402 2 6.28402 2.93 6.19402 4L5.36401 13.96C5.22401 15.59 6.51401 16.99 8.15401 16.99H18.804C20.244 16.99 21.504 15.81 21.614 14.38L22.154 6.88C22.274 5.22 21.014 3.87 19.344 3.87H6.43402" stroke="#1C1C1C" stroke-width="1.5" stroke-miterlimit="10" stroke-linecap="round" stroke-linejoin="round"/>
<path d="M16.864 22C17.5544 22 18.114 21.4404 18.114 20.75C18.114 20.0596 17.5544 19.5 16.864 19.5C16.1737 19.5 15.614 20.0596 15.614 20.75C15.614 21.4404 16.1737 22 16.864 22Z" stroke="#1C1C1C" stroke-width="1.5" stroke-miterlimit="10" stroke-linecap="round" stroke-linejoin="round"/>
<path d="M8.86401 22C9.55437 22 10.114 21.4404 10.114 20.75C10.114 20.0596 9.55437 19.5 8.86401 19.5C8.17366 19.5 7.61401 20.0596 7.61401 20.75C7.61401 21.4404 8.17366 22 8.86401 22Z" stroke="#1C1C1C" stroke-width="1.5" stroke-miterlimit="10" stroke-linecap="round" stroke-linejoin="round"/>
<path d="M9.61401 8H21.614" stroke="#1C1C1C" stroke-width="1.5" stroke-miterlimit="10" stroke-linecap="round" stroke-linejoin="round"/>
</svg>
