<svg width="25" height="24" viewBox="0 0 25 24" fill="none" xmlns="http://www.w3.org/2000/svg">
<path d="M22.1 10.2H12.7V13.9H18.2C18.1 14.8 17.5 16.2 16.2 17.1C15.4 17.7 14.2 18.1 12.7 18.1C10.1 18.1 7.80001 16.4 7.00001 13.9C6.80001 13.3 6.70001 12.6 6.70001 11.9C6.70001 11.2 6.80001 10.5 7.00001 9.9C7.10001 9.7 7.10001 9.5 7.20001 9.4C8.10001 7.3 10.2 5.8 12.7 5.8C14.6 5.8 15.8 6.6 16.6 7.3L19.4 4.5C17.7 3 15.4 2 12.7 2C8.80001 2 5.40001 4.2 3.80001 7.5C3.10001 8.9 2.70001 10.4 2.70001 12C2.70001 13.6 3.10001 15.1 3.80001 16.5C5.40001 19.8 8.80001 22 12.7 22C15.4 22 17.7 21.1 19.3 19.6C21.2 17.9 22.3 15.3 22.3 12.2C22.3 11.4 22.2 10.8 22.1 10.2Z" stroke="#3B3B3B" stroke-width="1.5" stroke-miterlimit="10" stroke-linecap="round" stroke-linejoin="round"/>
</svg>
